<svg width="80" height="80" viewBox="0 0 80 80" fill="none" xmlns="http://www.w3.org/2000/svg">
<path d="M25.6924 30.0641C25.6924 31.0689 25.8116 32.0433 26.0799 33.0176C27.8683 39.0465 33.502 43.4615 40.0001 43.4615C46.4982 43.4615 52.1318 39.0769 53.9203 33.0176C54.1885 32.0737 54.3078 31.0689 54.3078 30.0641" stroke="white" stroke-width="3" stroke-miterlimit="10" stroke-linecap="round" stroke-linejoin="round"/>
<path d="M19.731 20.3206V21.5385C22.1156 25.1924 30.4021 26.4103 40.0002 26.4103C49.5983 26.4103 57.8848 25.1924 60.2694 21.5385V20.3206" stroke="white" stroke-width="3" stroke-miterlimit="10" stroke-linecap="round" stroke-linejoin="round"/>
<path d="M51.9228 20.3206C48.8228 20.8991 43.9344 21.5385 39.9997 21.5385C36.0651 21.5385 31.1767 20.8991 28.0767 20.3206" stroke="white" stroke-width="3" stroke-miterlimit="10" stroke-linecap="round" stroke-linejoin="round"/>
<path d="M43.5767 8.14101V3.45191C43.5767 2.84294 43.1594 2.32531 42.593 2.23396C41.7584 2.11217 40.894 2.05127 39.9998 2.05127C39.1055 2.05127 38.2411 2.11217 37.4065 2.23396C36.8402 2.32531 36.4229 2.84294 36.4229 3.45191V8.14101" stroke="white" stroke-width="3" stroke-miterlimit="10" stroke-linecap="round" stroke-linejoin="round"/>
<path d="M56.6925 17.8846C56.6925 11.7949 51.2675 5.18753 43.5771 3.63464" stroke="white" stroke-width="3" stroke-miterlimit="10" stroke-linecap="round" stroke-linejoin="round"/>
<path d="M36.4235 3.63464C28.7331 5.18753 23.3081 11.7949 23.3081 17.8846" stroke="white" stroke-width="3" stroke-miterlimit="10" stroke-linecap="round" stroke-linejoin="round"/>
<path d="M51.9228 50.7692C51.9228 57.4983 46.5872 62.9487 39.9997 62.9487C33.4122 62.9487 28.0767 57.4983 28.0767 50.7692" stroke="white" stroke-width="3" stroke-miterlimit="10" stroke-linecap="round" stroke-linejoin="round"/>
<path d="M20.9233 50.7692L19.731 76.1025" stroke="white" stroke-width="3" stroke-miterlimit="10" stroke-linecap="round" stroke-linejoin="round"/>
<path d="M47.1538 42.2435V47.1153C47.1538 48.4551 48.376 49.3685 49.5385 49.5512L60.2692 50.7692C66.2308 51.9871 68.6154 56.8589 69.8077 64.1666L71 73.9102C71 73.9102 62.6538 77.564 40 77.564C17.3462 77.564 9 73.9102 9 73.9102L10.1923 64.1666C11.3846 56.8589 13.7692 51.9871 19.7308 50.7692L30.4615 49.5512C31.624 49.3685 32.8462 48.4551 32.8462 47.1153V42.2435" stroke="white" stroke-width="3" stroke-miterlimit="10" stroke-linecap="round" stroke-linejoin="round"/>
<path d="M59.0771 50.7692L60.2695 76.1025" stroke="white" stroke-width="3" stroke-miterlimit="10" stroke-linecap="round" stroke-linejoin="round"/>
</svg>

