<svg width="80" height="80" viewBox="0 0 80 80" fill="none" xmlns="http://www.w3.org/2000/svg">
<path d="M23.5645 64.6935H3V3H78V64.6935H57.4355" stroke="white" stroke-width="3" stroke-miterlimit="10" stroke-linecap="round" stroke-linejoin="round"/>
<path d="M21.1454 57.4355H10.2583V10.2581H70.7422V57.4355H59.8551" stroke="white" stroke-width="3" stroke-miterlimit="10" stroke-linecap="round" stroke-linejoin="round"/>
<path d="M55.0161 55.0161L52.7178 58.2823L53.0807 62.2742L49.4516 63.9677L47.7581 67.5968L43.7662 67.2339L40.5 69.5323L37.2339 67.2339L33.242 67.5968L31.5484 63.9677L27.9194 62.2742L28.2823 58.2823L25.9839 55.0161L28.2823 51.75L27.9194 47.7581L31.5484 46.0645L33.242 42.4355L37.2339 42.7984L40.5 40.5L43.7662 42.7984L47.7581 42.4355L49.4516 46.0645L53.0807 47.7581L52.7178 51.75L55.0161 55.0161Z" stroke="white" stroke-width="3" stroke-miterlimit="10" stroke-linecap="round" stroke-linejoin="round"/>
<path d="M48.9679 65.9032L50.1776 78L40.5002 75.5806L30.8228 78L32.0324 65.9032" stroke="white" stroke-width="3" stroke-miterlimit="10" stroke-linecap="round" stroke-linejoin="round"/>
<path d="M40.4998 62.2742C44.5083 62.2742 47.7578 59.0246 47.7578 55.0161C47.7578 51.0076 44.5083 47.7581 40.4998 47.7581C36.4912 47.7581 33.2417 51.0076 33.2417 55.0161C33.2417 59.0246 36.4912 62.2742 40.4998 62.2742Z" stroke="white" stroke-width="3" stroke-miterlimit="10" stroke-linecap="round" stroke-linejoin="round"/>
<path d="M63.4839 19.9355H17.5161V24.7743H63.4839V19.9355Z" stroke="white" stroke-width="3" stroke-miterlimit="10" stroke-linecap="round" stroke-linejoin="round"/>
<path d="M17.5161 32.0322H36.871" stroke="white" stroke-width="3" stroke-miterlimit="10" stroke-linecap="round" stroke-linejoin="round"/>
<path d="M44.1289 32.0322H63.4837" stroke="white" stroke-width="3" stroke-miterlimit="10" stroke-linecap="round" stroke-linejoin="round"/>
</svg>

