<svg width="80" height="80" viewBox="0 0 80 80" fill="none" xmlns="http://www.w3.org/2000/svg">
<path d="M25.6924 30.0641C25.6924 31.0689 25.8116 32.0433 26.0799 33.0176C27.8684 39.0465 33.502 43.4615 40.0001 43.4615C46.4982 43.4615 52.1318 39.0769 53.9203 33.0176C54.1885 32.0737 54.3078 31.0689 54.3078 30.0641" stroke="white" stroke-width="3" stroke-miterlimit="10" stroke-linecap="round" stroke-linejoin="round"/>
<path d="M19.731 20.3206V21.5385C22.1156 25.1924 30.4021 26.4103 40.0002 26.4103C49.5983 26.4103 57.8848 25.1924 60.2694 21.5385V20.3206" stroke="white" stroke-width="3" stroke-miterlimit="10" stroke-linecap="round" stroke-linejoin="round"/>
<path d="M51.9228 20.3206C48.8228 20.8991 43.9344 21.5385 39.9997 21.5385C36.0651 21.5385 31.1767 20.8991 28.0767 20.3206" stroke="white" stroke-width="3" stroke-miterlimit="10" stroke-linecap="round" stroke-linejoin="round"/>
<path d="M43.5767 8.14101V3.4519C43.5767 2.84293 43.1594 2.3253 42.593 2.23395C41.7584 2.11216 40.894 2.05127 39.9998 2.05127C39.1055 2.05127 38.2411 2.11216 37.4065 2.23395C36.8402 2.3253 36.4229 2.84293 36.4229 3.4519V8.14101" stroke="white" stroke-width="3" stroke-miterlimit="10" stroke-linecap="round" stroke-linejoin="round"/>
<path d="M56.6925 17.8846C56.6925 11.7949 51.2675 5.18753 43.5771 3.63464" stroke="white" stroke-width="3" stroke-miterlimit="10" stroke-linecap="round" stroke-linejoin="round"/>
<path d="M36.4235 3.63464C28.7331 5.18753 23.3081 11.7949 23.3081 17.8846" stroke="white" stroke-width="3" stroke-miterlimit="10" stroke-linecap="round" stroke-linejoin="round"/>
<path d="M20.9233 50.7692L19.731 76.1025" stroke="white" stroke-width="3" stroke-miterlimit="10" stroke-linecap="round" stroke-linejoin="round"/>
<path d="M53.1154 49.9471L60.2692 50.7692C66.2308 51.9872 68.6154 56.859 69.8077 64.1667L71 73.9103C71 73.9103 62.6538 77.5641 40 77.5641C17.3462 77.5641 9 73.9103 9 73.9103L10.1923 64.1667C11.3846 56.859 13.7692 51.9872 19.7308 50.7692L26.7057 49.9776" stroke="white" stroke-width="3" stroke-miterlimit="10" stroke-linecap="round" stroke-linejoin="round"/>
<path d="M40.0001 72.6923C34.3962 72.6923 29.6568 72.4791 25.6924 72.1442" stroke="white" stroke-width="3" stroke-miterlimit="10" stroke-linecap="round" stroke-linejoin="round"/>
<path d="M59.0771 50.7692L60.2695 76.1025" stroke="white" stroke-width="3" stroke-miterlimit="10" stroke-linecap="round" stroke-linejoin="round"/>
<path d="M36.4232 53.2051H35.2309C35.2309 53.2051 31.654 59.2948 28.0771 59.2948H26.8848V49.5512C28.0175 43.4615 32.8463 42.2435 32.8463 42.2435" stroke="white" stroke-width="3" stroke-miterlimit="10" stroke-linecap="round" stroke-linejoin="round"/>
<path d="M43.5767 53.2051H44.769C44.769 53.2051 48.3459 59.2948 51.9228 59.2948H53.1151V49.5512C51.9824 43.4615 47.1536 42.2435 47.1536 42.2435" stroke="white" stroke-width="3" stroke-miterlimit="10" stroke-linecap="round" stroke-linejoin="round"/>
<path d="M32.8462 42.2435V47.1153V48.3333C32.8462 48.3333 32.8462 53.2051 36.4231 53.2051H37.9135" stroke="white" stroke-width="3" stroke-miterlimit="10" stroke-linecap="round" stroke-linejoin="round"/>
<path d="M47.154 42.2435V47.1153V48.3333C47.154 48.3333 47.154 53.2051 43.5771 53.2051H42.3848" stroke="white" stroke-width="3" stroke-miterlimit="10" stroke-linecap="round" stroke-linejoin="round"/>
<path d="M36.4229 59.2948L39.9998 64.1666V77.564" stroke="white" stroke-width="3" stroke-miterlimit="10" stroke-linecap="round" stroke-linejoin="round"/>
<path d="M43.5769 59.2948L40 64.1666" stroke="white" stroke-width="3" stroke-miterlimit="10" stroke-linecap="round" stroke-linejoin="round"/>
<path d="M59.8815 71.5048C56.0065 72.0224 51.0287 72.4791 44.769 72.6314" stroke="white" stroke-width="3" stroke-miterlimit="10" stroke-linecap="round" stroke-linejoin="round"/>
</svg>

