<svg xmlns="http://www.w3.org/2000/svg" xmlns:xlink="http://www.w3.org/1999/xlink" viewBox="0 0 66.41 67.3"><defs><style>.cls-1{fill:#21a038;}.cls-2{fill:url(#Безымянный_градиент_8);}.cls-3{fill:url(#Безымянный_градиент_2);}.cls-4{fill:url(#Безымянный_градиент_3);}.cls-5{fill:url(#Безымянный_градиент_4);}.cls-6{fill:url(#Безымянный_градиент_5);}.cls-7{fill:url(#Безымянный_градиент_6);}</style><linearGradient id="Безымянный_градиент_8" x1="11.35" y1="117.87" x2="2.76" y2="142.35" gradientTransform="matrix(1, 0, 0, -1, 0, 174.32)" gradientUnits="userSpaceOnUse"><stop offset="0.14" stop-color="#f1e813"/><stop offset="0.3" stop-color="#e6e418"/><stop offset="0.58" stop-color="#c9da26"/><stop offset="0.89" stop-color="#a2cc39"/></linearGradient><linearGradient id="Безымянный_градиент_2" x1="11.9" y1="163.14" x2="33.56" y2="171.28" gradientTransform="matrix(1, 0, 0, -1, 0, 174.32)" gradientUnits="userSpaceOnUse"><stop offset="0.06" stop-color="#0fa7df"/><stop offset="0.54" stop-color="#0098f8"/><stop offset="0.92" stop-color="#0290ea"/></linearGradient><linearGradient id="Безымянный_градиент_3" x1="31.02" y1="111.79" x2="55.47" y2="117.24" gradientTransform="matrix(1, 0, 0, -1, 0, 174.32)" gradientUnits="userSpaceOnUse"><stop offset="0.12" stop-color="#a2cc39"/><stop offset="0.28" stop-color="#86c239"/><stop offset="0.87" stop-color="#219f38"/></linearGradient><linearGradient id="Безымянный_градиент_4" x1="31.57" y1="171.61" x2="52.49" y2="165.24" gradientTransform="matrix(1, 0, 0, -1, 0, 174.32)" gradientUnits="userSpaceOnUse"><stop offset="0.06" stop-color="#0290ea"/><stop offset="0.79" stop-color="#0c89ca"/></linearGradient><linearGradient id="Безымянный_градиент_5" x1="10.48" y1="118.97" x2="33.28" y2="110.56" gradientTransform="matrix(1, 0, 0, -1, 0, 174.32)" gradientUnits="userSpaceOnUse"><stop offset="0.13" stop-color="#f1e813"/><stop offset="0.3" stop-color="#eae616"/><stop offset="0.53" stop-color="#d8df1f"/><stop offset="0.8" stop-color="#bad52d"/><stop offset="0.98" stop-color="#a2cc39"/></linearGradient><linearGradient id="Безымянный_градиент_6" x1="2.71" y1="139.78" x2="12.04" y2="163.74" gradientTransform="matrix(1, 0, 0, -1, 0, 174.32)" gradientUnits="userSpaceOnUse"><stop offset="0.07" stop-color="#a2cc39"/><stop offset="0.26" stop-color="#81c45e"/><stop offset="0.92" stop-color="#0fa7df"/></linearGradient></defs><g id="Слой_2" data-name="Слой 2"><g id="Слой_1-2" data-name="Слой 1"><path class="cls-1" d="M59.48,13.08a33.2,33.2,0,0,1,4,6.69L33.21,42.37l-12.64-8V24.67l12.64,8Z"/><path class="cls-2" d="M7.67,33.65q0-.65,0-1.29L0,32c0,.55,0,1.11,0,1.68A34,34,0,0,0,2.52,46.54a33.54,33.54,0,0,0,7.21,10.9l5.43-5.5A26,26,0,0,1,7.67,33.65Z"/><path class="cls-3" d="M33.21,7.77c.43,0,.85,0,1.27,0L34.87,0c-.55,0-1.11,0-1.66,0A32.94,32.94,0,0,0,9.73,9.86l5.43,5.51a25.56,25.56,0,0,1,8.28-5.63A25.19,25.19,0,0,1,33.21,7.77Z"/><path class="cls-4" d="M33.21,59.53c-.43,0-.85,0-1.28,0l-.38,7.76c.55,0,1.1,0,1.66,0a32.59,32.59,0,0,0,12.7-2.55,33,33,0,0,0,10.77-7.3l-5.43-5.51a25.25,25.25,0,0,1-18,7.59Z"/><path class="cls-5" d="M47.6,12.29l6.46-4.82A32.77,32.77,0,0,0,33.2,0V7.77A25.2,25.2,0,0,1,47.6,12.29Z"/><path class="cls-1" d="M66.41,33.65a33.87,33.87,0,0,0-.52-6L58.74,33v.69a25.9,25.9,0,0,1-8.41,19.18l5.16,5.78a33.56,33.56,0,0,0,8.08-11.3A33.92,33.92,0,0,0,66.41,33.65Z"/><path class="cls-6" d="M33.21,59.53a25.19,25.19,0,0,1-10.36-2.22A25.59,25.59,0,0,1,14.28,51l-5.7,5.22a33.21,33.21,0,0,0,11.15,8.19A32.7,32.7,0,0,0,33.21,67.3Z"/><path class="cls-7" d="M16.08,14.47,10.93,8.7A33.56,33.56,0,0,0,2.85,20,33.91,33.91,0,0,0,0,33.65H7.67a26.1,26.1,0,0,1,2.2-10.49A25.74,25.74,0,0,1,16.08,14.47Z"/></g></g></svg>
