<?xml version="1.0" encoding="utf-8"?>
<!-- Generator: Adobe Illustrator 24.3.0, SVG Export Plug-In . SVG Version: 6.00 Build 0)  -->
<svg version="1.1" id="Слой_1" xmlns="http://www.w3.org/2000/svg" xmlns:xlink="http://www.w3.org/1999/xlink" x="0px" y="0px"
	 viewBox="0 0 86 11.6" style="enable-background:new 0 0 86 11.6;" xml:space="preserve">
<g id="Слой_2_1_">
	<g id="Слой_1-2">
		<path d="M8.1,11.2v-8h4.7v-3H0v2.9h4.7v8L8.1,11.2z M17.6,0.3h-3.4v11h3.4V0.3z M20.1,0.3v11h3.1v-6l5.9,6.1H32V0.3h-3.1v6l-5.7-6
			H20.1z M38.8,7.1l3.9,4.1h4.4l-5.5-5.7l5.3-5.2h-4.2l-4,4.1h-0.9V0.3h-3.3v11h3.3V7.1H38.8z M53.9,0c-4.5,0-7.1,2.5-7.1,5.8
			s2.7,5.8,7.1,5.8S61,9.1,61,5.8S58.3,0,53.9,0z M53.9,8.9c-2.2,0-3.6-1.3-3.6-3.1s1.4-3.1,3.6-3.1s3.6,1.3,3.6,3.1
			S56.1,8.9,53.9,8.9z M73.6,0.3h-11v11h3.3V7.4h7.2V5h-7.2V3.1h7.7V0.3z M86,0.3H75v11h3.3V7.4h7.2V5h-7.2V3.1H86V0.3z"/>
	</g>
</g>
</svg>

